<mxfile host="65bd71144e">
    <diagram id="1h8lHBVUhVor521oQmN3" name="Page-1">
        <mxGraphModel dx="990" dy="567" grid="0" gridSize="10" guides="1" tooltips="1" connect="1" arrows="1" fold="1" page="1" pageScale="1" pageWidth="1169" pageHeight="827" math="0" shadow="0">
            <root>
                <mxCell id="0"/>
                <mxCell id="1" parent="0"/>
                <mxCell id="2" value="&lt;font color=&quot;#000000&quot;&gt;Serilog&lt;br&gt;NuGet&lt;br&gt;&lt;/font&gt;" style="label;whiteSpace=wrap;html=1;image=data:image/jpeg,/9j/4AAQSkZJRgABAQEAeAB4AAD/2wBDAAMCAgMCAgMDAwMEAwMEBQgFBQQEBQoHBwYIDAoMDAsKCwsNDhIQDQ4RDgsLEBYQERMUFRUVDA8XGBYUGBIUFRT/2wBDAQMEBAUEBQkFBQkUDQsNFBQUFBQUFBQUFBQUFBQUFBQUFBQUFBQUFBQUFBQUFBQUFBQUFBQUFBQUFBQUFBQUFBT/wAARCACxALYDASIAAhEBAxEB/8QAHwAAAQUBAQEBAQEAAAAAAAAAAAECAwQFBgcICQoL/8QAtRAAAgEDAwIEAwUFBAQAAAF9AQIDAAQRBRIhMUEGE1FhByJxFDKBkaEII0KxwRVS0fAkM2JyggkKFhcYGRolJicoKSo0NTY3ODk6Q0RFRkdISUpTVFVWV1hZWmNkZWZnaGlqc3R1dnd4eXqDhIWGh4iJipKTlJWWl5iZmqKjpKWmp6ipqrKztLW2t7i5usLDxMXGx8jJytLT1NXW19jZ2uHi4+Tl5ufo6erx8vP09fb3+Pn6/8QAHwEAAwEBAQEBAQEBAQAAAAAAAAECAwQFBgcICQoL/8QAtREAAgECBAQDBAcFBAQAAQJ3AAECAxEEBSExBhJBUQdhcRMiMoEIFEKRobHBCSMzUvAVYnLRChYkNOEl8RcYGRomJygpKjU2Nzg5OkNERUZHSElKU1RVVldYWVpjZGVmZ2hpanN0dXZ3eHl6goOEhYaHiImKkpOUlZaXmJmaoqOkpaanqKmqsrO0tba3uLm6wsPExcbHyMnK0tPU1dbX2Nna4uPk5ebn6Onq8vP09fb3+Pn6/9oADAMBAAIRAxEAPwD7J1n4J/B3TI3J+GPgpUjGXkk0G0Cr+Pl15JrU3wB0+8aCP4feE7t0bBa18OWpUfiYwDWL+0l8S57/AF5vDdrM6WVrg3G04MjkA4PqADXiH2oZ68V+lZXw3SqUY1sU3eXRdPU/Es84wxNLEPD4OKtHRt/la628z6f8I6X8BfElwtvb+AvBi3TniC68PWik/QmPB/A16ppvwA+EV8ox8LvBauPvIdAtD/7Tr4NS+MbB1kZGByGU4Ir63/Zv+J1z4o0VrO8kMt9pxVTMx+Z4yDjPqeP0FcOccPxwdN16Ddlvc9HhziyrjK/1bFpJva1/1+/Rnpa/s3/CXv8AC3wX/wCE9af/ABunf8M3fCT/AKJb4L/8J60/+N16FC4kQMO4zUlfCH62tjzn/hm74Sf9Et8F/wDhPWn/AMbo/wCGbvhJ/wBEt8F/+E9af/G69GozSGec/wDDN3wk/wCiW+C//CetP/jdH/DN3wk/6Jb4L/8ACetP/jdejUUAec/8M3fCT/olvgv/AMJ60/8AjdH/AAzd8JP+iW+C/wDwnrT/AON16NRQB5z/AMM3fCT/AKJb4L/8J60/+N0f8M3fCT/olvgv/wAJ60/+N16NRQB5z/wzd8JP+iW+C/8AwnrT/wCN0f8ADN3wk/6Jb4L/APCetP8A43Xo1FAHnP8Awzd8JP8Aolvgv/wnrT/43R/wzd8JP+iW+C//AAnrT/43XouRRuFMR51/wzd8JP8Aolvgv/wnrT/43R/wzd8JP+iW+C//AAnrT/43XouRS0hnnP8Awzd8JP8Aolvgv/wnrT/43R/wzd8JP+iW+C//AAnrT/43Xo1FAHwF/wAFMvhL4G8B/AfQdQ8M+DPD3h2/k8S28D3Wk6VBaytGbW6YoWjQEqSqnHTKj0orrP8Agq9/ybv4d/7Gq3/9JLyitI7EnkHxmjuNN+KHiOK5BDm6aQZP8LYYfoRXF/aq+tv2kvgTeeMGTWtGiX+2rddk1uePtCdsH+8PftXx/qmn3ui3T2+oW01ncIdrRTIVIPpX7flONp4vDw5XqktP6+R/NGc5bVwmMqOcdJNtMt/aq+gf2RbeeTxJr84z5CWqJnsXL5/kDXhHhDwVrnjm+jttF0+e6Jba0oU+XH7s3QV94/Av4RwfD3w/Dp+/z7l2867uFGNz46D2FedxBj6dHCToJ3lI9ThnK6lbHQr292N/v6HsFjxbxg9doqxUaoIycHNKzFfTFfjz11P6EWiQ+o/MHpWRf+Jre03LHieQf3ThR+NcdrvxEgteJr1YH7wxnLf410U8PUq/BG55+Jx1HDK9SSR6O0yr95wPqaabuEdZV/76FeFX/wAWLFWKrFPcH1YgCss/Fhdx2aece7f/AFq9SOT4qW0GeDPibAx+2vxPof7dB/z2X/vqj7dB/wA9k/76r55/4W0f+fH/AMf/APrUf8LaP/Pj/wCP/wD1qv8AsXFfyGa4owb2l+D/AMj6H+2wf89l/MUn26D/AJ7L/wB9V88f8La/6cP/AB//AOtR/wALaP8Az4f+P/8A1qX9jYr+UP8AWjBr7X4P/I+iPtkP/PVfzFH2yH/nqv5ivngfFgn/AJcP/Hv/AK1H/C1j/wA+H/j3/wBal/Y+J/lD/WjBfzfg/wDI+iPtcP8Az1X8xT/MDdCDXzvH8WBkbtPJXvh//rVqWPxYsN6l4ri198ggfjSlk+KhvA1hxJgpv4/z/wAj3VWHrzTxXnWi/EKK8C+RdR3SnseCK7DTdegvvlB2P/dY9fpXk1KFSk7SVj6ChjKOIScXuatFN3U6sDuPi7/gq9/ybv4d/wCxqt//AEkvKKP+Cr3/ACbv4d/7Gq3/APSS8orSOxLPsS8sYbxcOmW6Bh1Fc5qXgWy1KT/SYILpe32iIPj8xXYUURqSh8LaMKmHp1vjRzel+EbXT41RFSNB0SFQo+nFb8MEdugWNAoHSpaax+WolJyfvMunRhSVooZNMsMZdztVepNcR4o8aR2Vs8k032e1XuPvSewo8beKrfTrecyzbLeL723qzegr528UeJLjxFeGWcbYV4SMfwjNe/luWyxMuaekT5LPM6+pR9lT+J7G54i+JF7qjPFaFrO2Jxhfvn3J7fhXJNMXJLHcfU81UvLyKzt2mmdYYl6u5wBXnmvfFqKFjDpcXnHtLL938B1r9DwuD5fdoQ/y+8/JMTjJ1589WV36/kemNIKY0mccmvBdQ8ba1qLfvb+YA9FiwoHtxWXJqV3I2WuJs+plJzXqxy+Ut5L+vmcXtrdGfRm/1J/Om+b/ALZ/OvnL7dc/8/Mv/fZo+3XP/PzL/wB9mreWv+b+vvF7ddj6NEv+2fzp6yf7R/Ovm/7dc/8APzL/AN9mj7dc/wDPzL/32an+zX/N+H/BD267f19x9ItIezH86ejZXr+tfNf266/5+Zf++zThqF0B/wAfMv8A32af9nS/n/AXtz6SVgGGOtS+Zu68/XmvnWz8Vaxp+DBqE64/vPu/nmus0b4tXcG1dRhW5XvJHw/1x0rKWX1I6xsyo1Yy62PYo7iSGRZEkaNhzuU4IrtfDPxKuLNhFfhri3zgSrw6+/vXl2h+IbLXLUS2kyyA9V/iH1rUWTmvHxGFhUThVjqehh8VVw0uejI+pfDfi5LqKLdKs1vJxHKOx9DXZV8leE/Flx4fvMMd9nJw8fp7j3r6J8J+IEvoYovN8yORd0cmevsa/Pswy94SV1sfr2SZxHHR9nUdpI+Wv+Cr3/Ju/h3/ALGq3/8ASS8opv8AwVcwf2d/DpBz/wAVTb/+kl5RXjx2Pq2fadFFFZlBWZrmofY7GQrkSP8AKnFaZ6GvPPijrg0vS7mUNg28OQP9o8Ct6NN1qigjixlf6vRlUfRHi3xM8T/2lqn2GP5ra1O08/ffuTXneratBpNjJdXL4hjycHv7VanmaVnkkPzMdxOevv8AnXlfiS6u/G3iy10PTvmLyi3iXdw8jHGcfj+lfreCwqjTS2UVdn4Diq88TVc3q5OyNrwj4J8VfHzxA0GmxeRp0J3STy5EMI9/Vj2H8q+m/Cf7Gng7RreI6v5+uXPRi8hhQfQIc/ma9R+Gvw70/wCHXg/T9Fs1x5KAzSY+aWQ/eYn3Ndj6fWvicy4hxVapKnhZOnTW1t35n6rlPDeEw9KM8TFTqPe60XlY8Z1f9kX4calbNHBpMunSkYWa3upSV98MxH5ivnD40fso6x8ObWXVtIuH1rR0yZPlxLAvqQOo9x+VffFVdQt47qIpKA0bDaysMgg9RXNhOIcfg5886jnHqnrf79Tux3DeX4ym4QpqEujStb5I/Jekr1r9pb4awfDT4jzQWamLTr9PtVtGFwsYJO5B7Aj8jXk1ftOFxEcXQhiKe0lc/CcVhqmDrToVd4u39fmhKKKK6TlCiiigBaKSijQC5pOq3Oi3aXNrK0cq+5wfYj0r2fwn4ui8RWIf7lwnDx+n09q8MrR0HWZdB1JLuJyu3hl7MvcVx4jDxrR8zWM3F2PoZJvzr0j4W+KGhujpsrYOd8L57jqPxryWxvlvrWG4iO5JVDLg1qaZqD2N7BcRnEkbhlOa+PxWH9tSlSlue3g8S8LXjVj0/r8hv/BUu8F9+zb4ZmAxu8UW2R6H7JecUVz/APwUg1IX/wCzN4ccPuWTxRayj8bO7or8unD2cnE/fcPVVelGoup9+UUUVznWIehrwf4+ag8dj5IbAkudrcdVUf44r3hvumvnT9oRsTWwzj9/J/IV7OURUsXG58xxFJxwMrdf80eEeJtSXS9DvLnJykZC/U8D+dcx+zsqTfG7wn5xB3Xefm9drEfrVj4lTbdFRO0koB/I1xXg7xBL4U8UabrEIzPYXCTrjgtg8j8RX7DRoSnhakY7yUl+Fj8Qp1o0sTSnLaLT+5p/kfqpGoWNRTto4rI8J+JLLxZ4dsNWsZlltrqJZFZT6jkH3zWvketfgvK4Ple6P6UjJVIqS2YtMkXcKdketRTyALwckdQDSZW2p8nft320As/Cc3y/afNuF9yuENfIjfeNe8ftdePoPGHxFXT7SYT2WkIYSVPHmk/Pg/kPwrwcnNfu2QUZ4fLaMZ9U397b/U/nriKtTxGaVpUvhVl80kn+KYlFFFfQHzgUUUUAFFFFABRRS0WuM9S+GWqGbS3tXbLWzcf7rc/0rto5BXlXwxmK6pcR/wB+PP5GvSpLoQ8da+cxcf3tkejRd4NnF/tyXrXn7LfhkMcmPxPFH+Vtd4/Q0VmftkSmb9lnQ2Jz/wAVZD/6SXNFfkmYx5cVUS7n7xkrbwFK/Y/TyiiivIPeCvm/9of/AI+LX/rvJ/IV9IV83/tEf8fFr/13k/kK9rJ/98ifK8S/8i+Xy/NHzP8AEw/8Se3/AOuv9K81brXpHxOb/iUW4/6a/wBK82r9swX8JH4PW3sexfAv9obUPhTMNPvIn1Hw9K2Xt8/vIWP8UZJ6eq+tfZng344eCvGdrHLY69bK5GWgunEUiexVsfpX5pU7cP7gJ9ya8TMuHMHmE/bK8JdbbP5H1GV8TYzLYeyaU4dnv9/b5M/UnWPiJ4Y0a2ae817T4I1G4s1wp/IZr5n+NX7XltdWdzpHgsSFpAY5NUkXaNp4Pljrn/aOPavk4srcsinHQLkf1pN2VAwBXLguFsJhZ+0qSc7bX0X3Hbj+LsXjKbp0oqnfezu/v0/IWSQySMzMzkn7zdTTaKSvtPI+Fe78wooob5RQIKKeqeYoKZfPTaM5qRLG5cZFvMfpGx/pQ2k7MFd7EFFTNZXEa/vLeWM9gyHmo2Xb16+ncUdbDaaG04KSKa2FxlqyNR1jGYoT7Fv8K0jBydgSvddjufAN8sPiB1Vst5J4H4V6KspkbLV458LWK+IpjnJaIgZ/CvXo2rxsdFQrtLsj2KCtD5HH/tgf8mr6H/2NcP8A6SXNFH7X5z+yrof/AGNcP/pJc0V+MZp/vtX1P3DJf9wp+h+oNFFFeMe+FfN/7RH/AB8Wv/XeT+Qr6Qr5u/aI/wCPi1/67yfyFe3k/wDvkT5Tib/kXT+X5o+Zfid/yCYP+uv9DXm9ek/E7/kEW/8A11/oa82r9rwP8JH4TW+NhRRRXoGAUUUUgCiilp+oegL9M96+hPhB+yXqvjSKDVfEUsmi6SwDpDtH2iZfbPCg+p59q6P9kz4Bw6w0HjPxBbCS237tPtZB8rEH/WEHsCOPfn0r7I8lAoAXA9K/Oc94inQnLC4P4lvLez8vM/TeH+GIYinHGYxvleqj3XRv1PP/AAf8DfBPgmGMaboFsJlH/HxMoklb3LNXdx20cUYSNAiDooAwKmEar0FLivzSrWq15c1Wbl6n6pRo0qEVClFRS7GLrPhHRtehaLUtOtryNgQyzRK2c/hXhPxM/Y98OeIYZbrw0f7B1HBZYwM28noCOq/h+VfR5jVhgjik8tVHArqwmYYvAy5sPUa+en3bHJjMtwmOjbEU0/lr95+SnxN8E+Ifh7rkmka9ZtZTclD/AAyrn7ynuK4rngelfq/8ZvhDovxc8LTaZqUCpcgZtb0L+8gk7EH+Y7ivy+8ceEL/AMB+KL/QtTiaK9spPLcMOoxkMPYggj2Nft/D+d082pOHLy1I7rv5o/G87yOWUzXJrTez7eTNT4XN/wAVA/8A1yP9K9ejryH4X/8AIwN/1yP9K9ejrXMP94duyPHo/Ach+19/yapoX/Y1w/8ApJc0Uftff8mqaF/2NcP/AKSXNFfiuaf77V9T9vyX/cKfofqFRRRXjHvhXzl+0MP3ltx/y3k/kK+jT0NfOn7Qg3TWoH/PeT+Qr2sn/wB8ifK8S65fJen5o+YviZ/yCLf/AK6/0rzZvvV6Z8Tl26RbZIGZsfoa8zJ3cjkV+24L+Cj8HrfHcSil2mm9wK77MzsFFKy7ff6U1pEVSWdVx60WfYVmLXQ/D/wrN448a6PoERw1/OsWR2Xqx/AA/lXKSapbRrnzQ3ste9fsSwwa/wDF6abZzYWTzRlh3JCZ/JjXDmFWWGwdWtHeMW/n0/E9TLML9dxlLDy2lJX9Ov4H3doOkw6HptrYW0Qht7eNYo0XoFAxgVq00U6v53u5Nye7P6SVkrLYKKKKBhSN06ZpaKAIXVuSAcivj39vn4bxzaZo/jC3ixJA32K6OPvIxLKT9DkfjX2RXkv7U2irrnwN8VxOQvk2wuVbGcFGDf0x+Ne7kWKlg8yo1Iuyckn6PRnjZvho4rA1YS1aTa9Uro/On4Xqf+Eifj/lken4V7BHXkXwrH/FRSD0ib+Yr1+MHNfs2YLlrW8v1Pwujbkv5HGftff8mq6F/wBjXD/6SXNFH7YH/Jquh/8AY2Rf+ktzRX4tmn++1fU/bsl/3Cn6H6g0UUV4p74h6Gvnn9oiN41tZQmQLhlPtlcj+VfQx6GvIfjrorahoNwyLl1CzL+HX9M162VTVPGQb2Pn89pe1wM12PjD4sXUkfh+KZIw3lzAn6EGvH/+EglHSJPxr3zxjop1rw7f2o+8UJT3YHI/livm+QMjlWG1lOCPSv3zL1CVJq2zPwevCOmhotrsxOdiD8DUbaxdN/Hj6Cs/Joya9bkjfRGHKizJfzuvMrfnUDOW5YsT9abRVWQC7vQDNfSv7Busxaf8XLm3lKrJe2Ekce44yQyNx+Cn8q+aa6/4UeMpPh78RNC8QqpdLG4V5EzjMZ+Vx/3yxrzszw8sXgq1CKu5RdvXdfkeplWIjhcbSry2TX3bM/XIY3DnvUlZ2j6hDqtja3dtKJoJ0WVHU5BUjIrRr+Z7NaPc/omLvFNBRRRSKCiiigAryr9p7VotH+B/i2WYEiS0+zrj+9IwQf8AoVepu21ck4r5D/b5+I6WPh3S/CUMmbi8k+13CIekafdB9Mk5/CvayXCyxmYUacdrpv0WrPJzbExwmCqVZO2jS9XofLPwnhaTXrqYD5EiI/Ekf4V65GvtXD/CXRmsdFlvZB890/y+yrx/jXoMMRZgoGSeAK/Z8fNSxEn20+7/AIJ+E0Y2ppdThf2yLdof2U/D7MMb/FcRH0+y3Q/pRXS/t96K2kfsr+FUYbWXxHahh/tG0vGb9aK/EcdU9piqkvM/c8ppungqcX2P0UooorzD2RG+6awPFuljUtLYFN+1TuXHUHgiugqORdykEZB4NVGThJSXQyq01Vg4PqfE/irw+2g6zcWTowRG+QnoydjXzh8UvCD6FrL3tvFmyumLD/YfuP8APrX398Xvh62oQtNax7rmEExDI/eL1KfUV85+IPD9rrWnzWN/AxRhhhjDKfX6iv2TJM0VSKqLfZn4dm2XywlZwktOh8qSYDcdKSuk8ZeCb3wjqGyRGntnP7u4xwR/Q1zhUhiMc1+hQnGcVKD0PmXFp2e4lFFFWIKVc7h60lKccYp2F5H2v+xr+0RHNDb+BPEVyIZYfl0y5mfAcf8APJie47e3FfZJZeu4fnX4xxzFJUdWaNlOQ6nBB9RX1l8Dv22rjw/Ba6L44WS/s1ARNVhG6VF6fOvV/qOfrX5VxFwvUqTljcCr31lH9V3v2P0/IeI4RpxwuMdrbP8AR/5n3YrA55zTq5Hwb8TvC3jS0WfRtcs75X5CpKA4+qnBH5V1QnjbBDAj2r8rqU50ZclRWfmrH6XTqQqRUoO68tSSmyMAuc8VUvdWsrGFpLm5hgjAOWlcKv5mvCvix+2B4J8C281tptwfEOsDIjt7Rj5QI/vSY2/gMmurDYHE4yXs8PTcn/W76HPicZh8HHnxE1FHpnxQ+JWj/C/wnc6xq86osanyYQ3zzP2RR3Jr8zfEGvax8bfiRdapeszzXcvzf3YIhwAvsAKs+OviB4r+OnisT30jTspIt7WHKw2yk9h0Huf1r0bwX4Kh8K6eE3LLdSD99MB19h7V+v5TldPIaTnUadaa18l5fqfj+c5zPNqihBWpLbu/N/5GppunRafZw20K7YolCqK7T4deGW8QeJIEK5toD5kjY6YPA/E1h2eny3lwkMKGWSQ7VVR1r6W+E/gNdB01d4DSZ3Stjlm9PpXk5rjlhKLafvPYMpwMsbiFbZHzl/wVAshZfs0+GhjDt4pt2bj1tLviir//AAVaUj9nnw8x7+Kbbj/t0u6K/LuZyu2fs8YKnFQXQ+1aKKKyNQpGUMMGlooAqahYJqEJjcfRu4rw34lfCmS5ma8tFEdznJXoJf8A69e+Mu7FQ3VlFeRmOZd6nsa7sHjKuDqKcHoeVj8vpY6m4zWp8O6xoa3EctnqFrvRjh4pV/p/WvKfE3wRgZmk0acwMR/qJssPpu619++LvhfY65CwMHmP/DIuBIv0Pf8AGvINc+Dmo6fI72j+eOm2QbW/wr9Jy3iKnJ2UuV9uh+VY/IMRh/s80e58Pat8PPEGivifTZnXs8I8xT+VZDaTfxthrOdT6NGw/pX2bfeD9Z08lZ9OnUf3guQfyrMk0Wfdzbyg9x5Z/wAK+shnakuj+Z85LBzjo4s+RP7Lvf8An1m/74NH9k3n/PrN/wB+zX1x/Y1x2tpP+/Z/wo/sm5/59n/79GtFm6f2V95n9VkfI39lXg/5dZv++DSrpt1/FaTH/gBr61/smb/n1l/79H/Ck/siX/n0l/79H/CqWccu0fxD6rI+U7WPVLKQyWy3Nu/ZkVga6K1+IfxAtY1ih8Q69HGOAiXcyqPoAa+iv7Jm/wCfWb/v0f8ACnLo8/a2k/GI/wCFYTzKnUVp0k/Vp/mjeFOvTd4yaPnKQeNvFkm6eXVL8txuuXdgfqWNbug/BO+uPLk1adbVepjjO6Q/iOBXuiaTdFvlt5c+gjPPt0rSs/BWs6gR5OnSgH+J/lA/OsZZsoR5YOMF5f0rF/VqtSXNZv7zjNC8M6d4ct0gsbdYV7v1dj/tHvW/puk3GrXSW9tC8srHHyr+tejaD8Fbq+kX7bLtU4zHAMt+ZFexeFfhvY6GgQRpGndR95/qe9fI43PKVG/I+aX5H0mB4fr4qzmuWJxnwz+FS6W63M6eZckYebsg7hff3r2W2tI7WNI4xhVGKkjhSOMIq7VHAAqSvzzFYqpi6jqVXdn6lgsDSwNNQpo+LP8Agq5/ybz4e9P+Ept//SS8op3/AAVe/wCTd/Dv/Y1W/wD6SXlFc8djvPtGiiioKCiiigAooooAjb7xrJ8Rf8eZ+tFFTT/iGNf+GcWv/H0f901D/wAtGoor6XD7HyNf+ISp92mt96iitqhkySiiisSQqNvvGiigBy9DUy/6qiilW+BhhPjR2Wgf8eKVptRRXzj+I+4p/APX7opaKKZZ8Xf8FXv+Td/Dv/Y1W/8A6SXlFFFaR2JZ/9k=;fillColor=#E6E6E6;" vertex="1" parent="1">
                    <mxGeometry x="30" y="240" width="100" height="50" as="geometry"/>
                </mxCell>
                <mxCell id="3" value="" style="curved=1;endArrow=classic;html=1;exitX=1;exitY=0.5;exitDx=0;exitDy=0;strokeColor=#480C66;strokeWidth=5;entryX=0;entryY=0.5;entryDx=0;entryDy=0;" edge="1" parent="1" source="2" target="4">
                    <mxGeometry width="50" height="50" relative="1" as="geometry">
                        <mxPoint x="350" y="310" as="sourcePoint"/>
                        <mxPoint x="210" y="280" as="targetPoint"/>
                        <Array as="points">
                            <mxPoint x="150" y="240"/>
                            <mxPoint x="190" y="265"/>
                        </Array>
                    </mxGeometry>
                </mxCell>
                <mxCell id="8" value="" style="edgeStyle=orthogonalEdgeStyle;rounded=0;orthogonalLoop=1;jettySize=auto;html=1;startArrow=classic;startFill=1;strokeColor=#480C66;strokeWidth=5;" edge="1" parent="1" source="4" target="7">
                    <mxGeometry relative="1" as="geometry"/>
                </mxCell>
                <mxCell id="4" value="&lt;font style=&quot;font-size: 15px&quot;&gt;Application&lt;/font&gt;&lt;br&gt;&lt;div style=&quot;text-align: justify&quot;&gt;&lt;span&gt;Log.Information()&lt;/span&gt;&lt;/div&gt;&lt;div style=&quot;text-align: justify&quot;&gt;&lt;span&gt;Log.Warning()&lt;/span&gt;&lt;/div&gt;&lt;div style=&quot;text-align: justify&quot;&gt;&lt;span&gt;Log.Error()&lt;/span&gt;&lt;/div&gt;" style="rounded=1;whiteSpace=wrap;html=1;fontColor=#ffffff;fillColor=#480C66;strokeColor=#29073B;" vertex="1" parent="1">
                    <mxGeometry x="220" y="240" width="120" height="80" as="geometry"/>
                </mxCell>
                <mxCell id="9" value="" style="edgeStyle=orthogonalEdgeStyle;rounded=0;orthogonalLoop=1;jettySize=auto;html=1;startArrow=none;startFill=1;strokeColor=#480C66;strokeWidth=5;" edge="1" parent="1" source="22" target="4">
                    <mxGeometry relative="1" as="geometry"/>
                </mxCell>
                <mxCell id="5" value="" style="shape=umlActor;verticalLabelPosition=bottom;verticalAlign=top;html=1;outlineConnect=0;strokeColor=#C73500;fillColor=#fa6800;fontColor=#000000;fontSize=56;strokeWidth=5;" vertex="1" parent="1">
                    <mxGeometry x="255" y="53" width="50" height="60" as="geometry"/>
                </mxCell>
                <mxCell id="7" value="Db" style="shape=cylinder3;whiteSpace=wrap;html=1;boundedLbl=1;backgroundOutline=1;size=8.20001220703125;strokeColor=#29073B;fillColor=#480C66;" vertex="1" parent="1">
                    <mxGeometry x="250" y="370" width="60" height="36" as="geometry"/>
                </mxCell>
                <mxCell id="11" value="&lt;font style=&quot;font-size: 15px&quot;&gt;User&lt;/font&gt;" style="text;html=1;align=center;verticalAlign=middle;resizable=0;points=[];autosize=1;strokeColor=none;fontSize=56;" vertex="1" parent="1">
                    <mxGeometry x="290" y="32" width="50" height="90" as="geometry"/>
                </mxCell>
                <mxCell id="13" value="&lt;font style=&quot;font-size: 15px&quot;&gt;Azure&lt;/font&gt;&lt;br&gt;Application Insights" style="ellipse;shape=cloud;whiteSpace=wrap;html=1;strokeColor=#29073B;fillColor=#480C66;" vertex="1" parent="1">
                    <mxGeometry x="400" y="150" width="200" height="100" as="geometry"/>
                </mxCell>
                <mxCell id="14" value="" style="endArrow=classic;html=1;fontSize=56;strokeColor=#480C66;strokeWidth=5;exitX=1;exitY=0.5;exitDx=0;exitDy=0;entryX=0.13;entryY=0.77;entryDx=0;entryDy=0;entryPerimeter=0;" edge="1" parent="1" source="4" target="13">
                    <mxGeometry width="50" height="50" relative="1" as="geometry">
                        <mxPoint x="480" y="280" as="sourcePoint"/>
                        <mxPoint x="530" y="230" as="targetPoint"/>
                    </mxGeometry>
                </mxCell>
                <mxCell id="15" value="&lt;font style=&quot;font-size: 14px&quot;&gt;Sofie&lt;/font&gt;" style="shape=umlActor;verticalLabelPosition=bottom;verticalAlign=top;html=1;outlineConnect=0;fillColor=#480C66;strokeWidth=1;strokeColor=#29073B;" vertex="1" parent="1">
                    <mxGeometry x="700" y="240" width="50" height="60" as="geometry"/>
                </mxCell>
                <mxCell id="17" value="" style="endArrow=classic;html=1;fontSize=56;strokeColor=#480C66;strokeWidth=5;exitX=0;exitY=0.3333333333333333;exitDx=0;exitDy=0;exitPerimeter=0;entryX=0.96;entryY=0.7;entryDx=0;entryDy=0;entryPerimeter=0;" edge="1" parent="1" source="15" target="13">
                    <mxGeometry width="50" height="50" relative="1" as="geometry">
                        <mxPoint x="480" y="280" as="sourcePoint"/>
                        <mxPoint x="530" y="230" as="targetPoint"/>
                    </mxGeometry>
                </mxCell>
                <mxCell id="18" value="Kusto Queries" style="text;html=1;align=center;verticalAlign=middle;resizable=0;points=[];autosize=1;strokeColor=none;" vertex="1" parent="1">
                    <mxGeometry x="600" y="250" width="90" height="20" as="geometry"/>
                </mxCell>
                <mxCell id="19" value="&amp;nbsp; &amp;nbsp; List of results" style="shape=note;whiteSpace=wrap;html=1;backgroundOutline=1;darkOpacity=0.05;strokeColor=#29073B;strokeWidth=1;fillColor=#480C66;align=left;" vertex="1" parent="1">
                    <mxGeometry x="435" y="300" width="130" height="50" as="geometry"/>
                </mxCell>
                <mxCell id="21" value="" style="endArrow=classic;html=1;fontSize=56;strokeColor=#480C66;strokeWidth=5;entryX=0.5;entryY=0;entryDx=0;entryDy=0;entryPerimeter=0;exitX=0.498;exitY=0.99;exitDx=0;exitDy=0;exitPerimeter=0;" edge="1" parent="1" source="13" target="19">
                    <mxGeometry width="50" height="50" relative="1" as="geometry">
                        <mxPoint x="480" y="280" as="sourcePoint"/>
                        <mxPoint x="530" y="230" as="targetPoint"/>
                    </mxGeometry>
                </mxCell>
                <mxCell id="22" value="&lt;font style=&quot;font-size: 15px&quot;&gt;UI&lt;/font&gt;" style="rounded=1;whiteSpace=wrap;html=1;strokeColor=#29073B;strokeWidth=1;fillColor=#480C66;" vertex="1" parent="1">
                    <mxGeometry x="234" y="158" width="92" height="38" as="geometry"/>
                </mxCell>
                <mxCell id="23" value="" style="edgeStyle=orthogonalEdgeStyle;rounded=0;orthogonalLoop=1;jettySize=auto;html=1;startArrow=classic;startFill=1;strokeColor=#480C66;strokeWidth=5;endArrow=none;" edge="1" parent="1" source="5" target="22">
                    <mxGeometry relative="1" as="geometry">
                        <mxPoint x="280" y="113" as="sourcePoint"/>
                        <mxPoint x="280" y="240" as="targetPoint"/>
                    </mxGeometry>
                </mxCell>
            </root>
        </mxGraphModel>
    </diagram>
</mxfile>